<svg xmlns="http://www.w3.org/2000/svg"  viewBox="0 0 64 64" width="128px" height="128px"><radialGradient id="f~qkT_l~Hf2zuA91nOlupa" cx="32" cy="34.5" r="51.925" gradientTransform="matrix(1 0 0 -1 0 66)" gradientUnits="userSpaceOnUse"><stop offset="0" stop-color="#9ceeff"/><stop offset=".752" stop-color="#c5f5ff"/><stop offset="1" stop-color="#dcf9ff"/></radialGradient><path fill="url(#f~qkT_l~Hf2zuA91nOlupa)" d="M60.5,30c1.995,0,3.6-1.669,3.495-3.688C63.896,24.419,62.197,23,60.302,23H59.5	c-0.828,0-1.5-0.671-1.5-1.5s0.672-1.5,1.5-1.5h0.802c1.895,0,3.594-1.419,3.693-3.312C64.1,14.669,62.495,13,60.5,13h-1.393	c-0.996,0-1.92-0.681-2.08-1.664C56.823,10.083,57.785,9,59,9h0.302c1.895,0,3.594-1.419,3.693-3.312C63.101,3.669,61.495,2,59.5,2	H4.698C2.803,2,1.104,3.419,1.005,5.312C0.899,7.331,2.505,9,4.5,9h0.393c0.996,0,1.92,0.681,2.08,1.664C7.177,11.917,6.215,13,5,13	H3.698c-1.895,0-3.594,1.419-3.693,3.312C-0.101,18.331,1.505,20,3.5,20C4.328,20,5,20.671,5,21.5S4.328,23,3.5,23h0.198	c-1.895,0-3.594,1.419-3.693,3.312C-0.101,28.331,1.505,30,3.5,30l0,0C4.328,30,5,30.672,5,31.5l0,0C5,32.328,4.328,33,3.5,33l0,0	c-1.995,0-3.6,1.669-3.495,3.688C0.104,38.581,1.803,40,3.698,40H4.5C5.328,40,6,40.671,6,41.5C6,42.328,5.328,43,4.5,43H3.698	c-1.895,0-3.594,1.419-3.693,3.312C-0.101,48.331,1.505,50,3.5,50h1.393c0.996,0,1.92,0.681,2.08,1.664C7.176,52.917,6.215,54,5,54	H4.698c-1.895,0-3.594,1.419-3.693,3.312C0.899,59.331,2.505,61,4.5,61h54.802c1.895,0,3.594-1.419,3.693-3.312	C63.1,55.669,61.495,54,59.5,54H59c-1.105,0-2-0.896-2-2l0,0c0-1.104,0.895-2,2-2h1.302c1.895,0,3.594-1.419,3.693-3.312	C64.1,44.669,62.495,43,60.5,43c-0.828,0-1.5-0.672-1.5-1.5l0,0c0-0.829,0.672-1.5,1.5-1.5h-0.198c1.895,0,3.594-1.419,3.693-3.312	C64.101,34.669,62.495,33,60.5,33l0,0c-0.828,0-1.5-0.672-1.5-1.5l0,0C59,30.672,59.672,30,60.5,30L60.5,30z"/><linearGradient id="f~qkT_l~Hf2zuA91nOlupb" x1="32" x2="32" y1="-11.793" y2="52.102" gradientTransform="matrix(1 0 0 -1 0 66)" gradientUnits="userSpaceOnUse"><stop offset="0" stop-color="#dbdee1"/><stop offset=".085" stop-color="#dee1e4"/><stop offset=".606" stop-color="#eff1f2"/><stop offset="1" stop-color="#f5f6f7"/></linearGradient><path fill="url(#f~qkT_l~Hf2zuA91nOlupb)" d="M46,8H18C12.48,8,8,12.48,8,18v28c0,5.52,4.48,10,10,10h28c5.52,0,10-4.48,10-10V18	C56,12.48,51.52,8,46,8z"/><linearGradient id="f~qkT_l~Hf2zuA91nOlupc" x1="39.5" x2="39.5" y1="47" y2="49" gradientTransform="matrix(1 0 0 -1 0 66)" gradientUnits="userSpaceOnUse"><stop offset="0" stop-color="#dbdee1"/><stop offset="1" stop-color="#dee1e4"/></linearGradient><path fill="url(#f~qkT_l~Hf2zuA91nOlupc)" d="M50,18L50,18c0,0.552-0.41,1-0.917,1H29.917C29.41,19,29,18.552,29,18l0,0	c0-0.552,0.41-1,0.917-1h19.167C49.59,17,50,17.448,50,18z"/><linearGradient id="f~qkT_l~Hf2zuA91nOlupd" x1="39.5" x2="39.5" y1="33" y2="35" gradientTransform="matrix(1 0 0 -1 0 66)" gradientUnits="userSpaceOnUse"><stop offset="0" stop-color="#dbdee1"/><stop offset="1" stop-color="#dee1e4"/></linearGradient><path fill="url(#f~qkT_l~Hf2zuA91nOlupd)" d="M50,32L50,32c0,0.552-0.41,1-0.917,1H29.917C29.41,33,29,32.552,29,32l0,0	c0-0.552,0.41-1,0.917-1h19.167C49.59,31,50,31.448,50,32z"/><linearGradient id="f~qkT_l~Hf2zuA91nOlupe" x1="39.5" x2="39.5" y1="19" y2="21" gradientTransform="matrix(1 0 0 -1 0 66)" gradientUnits="userSpaceOnUse"><stop offset="0" stop-color="#dbdee1"/><stop offset="1" stop-color="#dee1e4"/></linearGradient><path fill="url(#f~qkT_l~Hf2zuA91nOlupe)" d="M50,46L50,46c0,0.552-0.41,1-0.917,1H29.917C29.41,47,29,46.552,29,46l0,0	c0-0.552,0.41-1,0.917-1h19.167C49.59,45,50,45.448,50,46z"/><linearGradient id="f~qkT_l~Hf2zuA91nOlupf" x1="19" x2="19" y1="39.876" y2="56.387" gradientTransform="matrix(1 0 0 -1 0 66)" gradientUnits="userSpaceOnUse"><stop offset="0" stop-color="#155cdc"/><stop offset=".486" stop-color="#2383e4"/><stop offset="1" stop-color="#2fb3ee"/></linearGradient><path fill="url(#f~qkT_l~Hf2zuA91nOlupf)" d="M19,24c-3.309,0-6-2.691-6-6s2.691-6,6-6s6,2.691,6,6S22.309,24,19,24z M19,14	c-2.206,0-4,1.794-4,4s1.794,4,4,4s4-1.794,4-4S21.206,14,19,14z"/><linearGradient id="f~qkT_l~Hf2zuA91nOlupg" x1="19" x2="19" y1="41.988" y2="53.8" gradientTransform="matrix(1 0 0 -1 0 66)" gradientUnits="userSpaceOnUse"><stop offset="0" stop-color="#155cdc"/><stop offset=".486" stop-color="#2383e4"/><stop offset="1" stop-color="#2fb3ee"/></linearGradient><circle cx="19" cy="18" r="2" fill="url(#f~qkT_l~Hf2zuA91nOlupg)"/><linearGradient id="f~qkT_l~Hf2zuA91nOluph" x1="19" x2="19" y1="23.956" y2="44.684" gradientTransform="matrix(1 0 0 -1 0 66)" gradientUnits="userSpaceOnUse"><stop offset="0" stop-color="#fc724e"/><stop offset=".214" stop-color="#fc7366"/><stop offset=".524" stop-color="#fa7381"/><stop offset=".793" stop-color="#f97492"/><stop offset=".989" stop-color="#f97499"/></linearGradient><path fill="url(#f~qkT_l~Hf2zuA91nOluph)" d="M19,38c-3.309,0-6-2.691-6-6s2.691-6,6-6s6,2.691,6,6S22.309,38,19,38z M19,28	c-2.206,0-4,1.794-4,4s1.794,4,4,4s4-1.794,4-4S21.206,28,19,28z"/><linearGradient id="f~qkT_l~Hf2zuA91nOlupi" x1="19" x2="19" y1="38.855" y2="29.054" gradientTransform="matrix(1 0 0 -1 0 66)" gradientUnits="userSpaceOnUse"><stop offset=".011" stop-color="#f97499"/><stop offset=".207" stop-color="#f97492"/><stop offset=".476" stop-color="#fa7381"/><stop offset=".786" stop-color="#fc7366"/><stop offset="1" stop-color="#fc724e"/></linearGradient><circle cx="19" cy="32" r="2" fill="url(#f~qkT_l~Hf2zuA91nOlupi)"/><linearGradient id="f~qkT_l~Hf2zuA91nOlupj" x1="19" x2="19" y1="14" y2="26" gradientTransform="matrix(1 0 0 -1 0 66)" gradientUnits="userSpaceOnUse"><stop offset="0" stop-color="#feaa53"/><stop offset=".612" stop-color="#ffcd49"/><stop offset="1" stop-color="#ffde44"/></linearGradient><path fill="url(#f~qkT_l~Hf2zuA91nOlupj)" d="M19,52c-3.309,0-6-2.691-6-6s2.691-6,6-6s6,2.691,6,6S22.309,52,19,52z M19,42	c-2.206,0-4,1.794-4,4s1.794,4,4,4s4-1.794,4-4S21.206,42,19,42z"/><linearGradient id="f~qkT_l~Hf2zuA91nOlupk" x1="19" x2="19" y1="18" y2="22" gradientTransform="matrix(1 0 0 -1 0 66)" gradientUnits="userSpaceOnUse"><stop offset="0" stop-color="#feaa53"/><stop offset=".612" stop-color="#ffcd49"/><stop offset="1" stop-color="#ffde44"/></linearGradient><circle cx="19" cy="46" r="2" fill="url(#f~qkT_l~Hf2zuA91nOlupk)"/></svg>