<?xml version="1.0" standalone="no"?>
<!DOCTYPE svg PUBLIC "-//W3C//DTD SVG 20010904//EN"
 "http://www.w3.org/TR/2001/REC-SVG-20010904/DTD/svg10.dtd">
<svg version="1.0" xmlns="http://www.w3.org/2000/svg"
 width="256.000000pt" height="256.000000pt" viewBox="0 0 256.000000 256.000000"
 preserveAspectRatio="xMidYMid meet">
<metadata>
Created by potrace 1.14, written by Peter Selinger 2001-2017
</metadata>
<g transform="translate(0.000000,256.000000) scale(0.100000,-0.100000)"
fill="#000000" stroke="none">
<path d="M122 2463 c-120 -59 -96 -237 36 -258 66 -11 77 -14 95 -27 26 -20
32 -78 9 -106 -15 -19 -33 -25 -96 -32 -85 -10 -126 -32 -152 -82 -18 -35 -13
-98 11 -135 23 -34 74 -63 112 -63 40 0 69 -37 59 -75 -7 -26 -19 -33 -94 -56
-142 -42 -127 -242 20 -266 46 -7 78 -33 78 -63 0 -29 -35 -60 -68 -60 -36 0
-98 -43 -118 -82 -12 -22 -14 -43 -9 -77 11 -75 74 -121 166 -121 16 0 38 -9
49 -20 44 -44 9 -100 -63 -100 -53 0 -105 -27 -135 -71 -19 -27 -22 -43 -18
-79 10 -81 70 -130 159 -130 52 0 101 -20 111 -45 21 -57 -20 -115 -81 -115
-154 0 -207 -194 -72 -262 32 -17 108 -18 1159 -18 1051 0 1127 1 1159 18 95
48 105 172 19 235 -15 11 -53 24 -84 28 -66 9 -82 22 -90 71 -5 29 -2 40 20
61 22 22 36 27 74 27 101 0 163 41 178 117 14 72 -42 147 -118 160 -100 15
-105 102 -8 124 61 14 107 51 121 99 24 81 -28 163 -113 177 -103 16 -103 110
0 126 109 18 156 143 86 226 -27 33 -76 51 -136 51 -27 0 -41 6 -52 22 -37 53
-10 89 73 99 74 8 124 42 141 95 33 98 -40 184 -154 184 -59 0 -88 12 -105 43
-28 53 13 117 77 117 20 1 52 9 71 18 100 50 105 183 9 242 -32 20 -53 20
-1163 20 -1021 0 -1133 -2 -1163 -17z"/>
</g>
</svg>
